<?xml version="1.0" encoding="utf-8"?>
<!-- Generator: Adobe Illustrator 18.0.0, SVG Export Plug-In . SVG Version: 6.00 Build 0)  -->
<!DOCTYPE svg PUBLIC "-//W3C//DTD SVG 1.1//EN" "http://www.w3.org/Graphics/SVG/1.1/DTD/svg11.dtd">
<svg version="1.1" id="Layer_1" xmlns="http://www.w3.org/2000/svg" xmlns:xlink="http://www.w3.org/1999/xlink" x="0px" y="0px"
	 viewBox="0 0 520 500" enable-background="new 0 0 520 500" xml:space="preserve">
<g>
	<line fill="#294270" x1="19.7" y1="340" x2="20.3" y2="20"/>
	<g>
		<line fill="none" stroke="#294270" stroke-width="3.0153" stroke-miterlimit="10" x1="19.7" y1="340" x2="20.2" y2="32.8"/>
		<g>
			<polygon fill="#294270" points="20.3,20 27.6,38 20.2,33.7 12.9,38 			"/>
		</g>
	</g>
</g>
<g>
	<line fill="#294270" x1="19" y1="340" x2="500" y2="340"/>
	<g>
		<line fill="none" stroke="#294270" stroke-width="3" stroke-miterlimit="10" x1="19" y1="340.5" x2="487" y2="340.5"/>
		<g>
			<polygon fill="#294270" points="500,340 482.1,347.3 486.3,340 482.1,332.7 			"/>
		</g>
	</g>
</g>
<g>
	<g>
		<line fill="none" stroke="#65A1CF" stroke-miterlimit="10" x1="20" y1="299.5" x2="23" y2="299.5"/>
		<line fill="none" stroke="#65A1CF" stroke-miterlimit="10" stroke-dasharray="6,6" x1="29" y1="299.5" x2="474" y2="299.5"/>
		<line fill="none" stroke="#65A1CF" stroke-miterlimit="10" x1="477" y1="299.5" x2="480" y2="299.5"/>
	</g>
</g>
<g>
	<g>
		<line fill="none" stroke="#65A1CF" stroke-miterlimit="10" x1="20" y1="259.5" x2="23" y2="259.5"/>
		<line fill="none" stroke="#65A1CF" stroke-miterlimit="10" stroke-dasharray="6,6" x1="29" y1="259.5" x2="474" y2="259.5"/>
		<line fill="none" stroke="#65A1CF" stroke-miterlimit="10" x1="477" y1="259.5" x2="480" y2="259.5"/>
	</g>
</g>
<g>
	<g>
		<line fill="none" stroke="#65A1CF" stroke-miterlimit="10" x1="20" y1="219.5" x2="23" y2="219.5"/>
		<line fill="none" stroke="#65A1CF" stroke-miterlimit="10" stroke-dasharray="6,6" x1="29" y1="219.5" x2="474" y2="219.5"/>
		<line fill="none" stroke="#65A1CF" stroke-miterlimit="10" x1="477" y1="219.5" x2="480" y2="219.5"/>
	</g>
</g>
<g>
	<g>
		<line fill="none" stroke="#65A1CF" stroke-miterlimit="10" x1="20" y1="179.5" x2="23" y2="179.5"/>
		<line fill="none" stroke="#65A1CF" stroke-miterlimit="10" stroke-dasharray="6,6" x1="29" y1="179.5" x2="474" y2="179.5"/>
		<line fill="none" stroke="#65A1CF" stroke-miterlimit="10" x1="477" y1="179.5" x2="480" y2="179.5"/>
	</g>
</g>
<g>
	<g>
		<line fill="none" stroke="#65A1CF" stroke-miterlimit="10" x1="20" y1="139.5" x2="23" y2="139.5"/>
		<line fill="none" stroke="#65A1CF" stroke-miterlimit="10" stroke-dasharray="6,6" x1="29" y1="139.5" x2="474" y2="139.5"/>
		<line fill="none" stroke="#65A1CF" stroke-miterlimit="10" x1="477" y1="139.5" x2="480" y2="139.5"/>
	</g>
</g>
<g>
	<g>
		<line fill="none" stroke="#65A1CF" stroke-miterlimit="10" x1="219.5" y1="40" x2="219.5" y2="43"/>
		<line fill="none" stroke="#65A1CF" stroke-miterlimit="10" stroke-dasharray="6,6" x1="219.5" y1="49" x2="219.5" y2="333"/>
		<line fill="none" stroke="#65A1CF" stroke-miterlimit="10" x1="219.5" y1="336" x2="219.5" y2="339"/>
	</g>
</g>
<g>
	<g>
		<line fill="none" stroke="#65A1CF" stroke-miterlimit="10" x1="179.5" y1="40" x2="179.5" y2="43"/>
		<line fill="none" stroke="#65A1CF" stroke-miterlimit="10" stroke-dasharray="6,6" x1="179.5" y1="49" x2="179.5" y2="333"/>
		<line fill="none" stroke="#65A1CF" stroke-miterlimit="10" x1="179.5" y1="336" x2="179.5" y2="339"/>
	</g>
</g>
<g>
	<g>
		<line fill="none" stroke="#65A1CF" stroke-miterlimit="10" x1="139.5" y1="40" x2="139.5" y2="43"/>
		<line fill="none" stroke="#65A1CF" stroke-miterlimit="10" stroke-dasharray="6,6" x1="139.5" y1="49" x2="139.5" y2="333"/>
		<line fill="none" stroke="#65A1CF" stroke-miterlimit="10" x1="139.5" y1="336" x2="139.5" y2="339"/>
	</g>
</g>
<g>
	<g>
		<line fill="none" stroke="#65A1CF" stroke-miterlimit="10" x1="99.5" y1="40" x2="99.5" y2="43"/>
		<line fill="none" stroke="#65A1CF" stroke-miterlimit="10" stroke-dasharray="6,6" x1="99.5" y1="49" x2="99.5" y2="333"/>
		<line fill="none" stroke="#65A1CF" stroke-miterlimit="10" x1="99.5" y1="336" x2="99.5" y2="339"/>
	</g>
</g>
<g>
	<g>
		<line fill="none" stroke="#65A1CF" stroke-miterlimit="10" x1="59.5" y1="40" x2="59.5" y2="43"/>
		<line fill="none" stroke="#65A1CF" stroke-miterlimit="10" stroke-dasharray="6,6" x1="59.5" y1="49" x2="59.5" y2="333"/>
		<line fill="none" stroke="#65A1CF" stroke-miterlimit="10" x1="59.5" y1="336" x2="59.5" y2="339"/>
	</g>
</g>
<g>
	<g>
		<line fill="none" stroke="#65A1CF" stroke-miterlimit="10" x1="420.5" y1="40" x2="420.5" y2="43"/>
		<line fill="none" stroke="#65A1CF" stroke-miterlimit="10" stroke-dasharray="6,6" x1="420.5" y1="49" x2="420.5" y2="333"/>
		<line fill="none" stroke="#65A1CF" stroke-miterlimit="10" x1="420.5" y1="336" x2="420.5" y2="339"/>
	</g>
</g>
<g>
	<g>
		<line fill="none" stroke="#65A1CF" stroke-miterlimit="10" x1="380.5" y1="40" x2="380.5" y2="43"/>
		<line fill="none" stroke="#65A1CF" stroke-miterlimit="10" stroke-dasharray="6,6" x1="380.5" y1="49" x2="380.5" y2="333"/>
		<line fill="none" stroke="#65A1CF" stroke-miterlimit="10" x1="380.5" y1="336" x2="380.5" y2="339"/>
	</g>
</g>
<g>
	<g>
		<line fill="none" stroke="#65A1CF" stroke-miterlimit="10" x1="340.5" y1="40" x2="340.5" y2="43"/>
		<line fill="none" stroke="#65A1CF" stroke-miterlimit="10" stroke-dasharray="6,6" x1="340.5" y1="49" x2="340.5" y2="333"/>
		<line fill="none" stroke="#65A1CF" stroke-miterlimit="10" x1="340.5" y1="336" x2="340.5" y2="339"/>
	</g>
</g>
<g>
	<g>
		<line fill="none" stroke="#65A1CF" stroke-miterlimit="10" x1="300.5" y1="40" x2="300.5" y2="43"/>
		<line fill="none" stroke="#65A1CF" stroke-miterlimit="10" stroke-dasharray="6,6" x1="300.5" y1="49" x2="300.5" y2="333"/>
		<line fill="none" stroke="#65A1CF" stroke-miterlimit="10" x1="300.5" y1="336" x2="300.5" y2="339"/>
	</g>
</g>
<g>
	<g>
		<line fill="none" stroke="#65A1CF" stroke-miterlimit="10" x1="260.5" y1="40" x2="260.5" y2="43"/>
		<line fill="none" stroke="#65A1CF" stroke-miterlimit="10" stroke-dasharray="6,6" x1="260.5" y1="49" x2="260.5" y2="333"/>
		<line fill="none" stroke="#65A1CF" stroke-miterlimit="10" x1="260.5" y1="336" x2="260.5" y2="339"/>
	</g>
</g>
<g>
	<g>
		<line fill="none" stroke="#65A1CF" stroke-miterlimit="10" x1="19" y1="100.5" x2="22" y2="100.5"/>
		<line fill="none" stroke="#65A1CF" stroke-miterlimit="10" stroke-dasharray="6,6" x1="28" y1="100.5" x2="473" y2="100.5"/>
		<line fill="none" stroke="#65A1CF" stroke-miterlimit="10" x1="476" y1="100.5" x2="479" y2="100.5"/>
	</g>
</g>
<g>
	<g>
		<line fill="none" stroke="#65A1CF" stroke-miterlimit="10" x1="19" y1="60.5" x2="22" y2="60.5"/>
		<line fill="none" stroke="#65A1CF" stroke-miterlimit="10" stroke-dasharray="6,6" x1="28" y1="60.5" x2="473" y2="60.5"/>
		<line fill="none" stroke="#65A1CF" stroke-miterlimit="10" x1="476" y1="60.5" x2="479" y2="60.5"/>
	</g>
</g>
<g>
	<g>
		<line fill="none" stroke="#65A1CF" stroke-miterlimit="10" x1="459.5" y1="40" x2="459.5" y2="43"/>
		<line fill="none" stroke="#65A1CF" stroke-miterlimit="10" stroke-dasharray="6,6" x1="459.5" y1="49" x2="459.5" y2="333"/>
		<line fill="none" stroke="#65A1CF" stroke-miterlimit="10" x1="459.5" y1="336" x2="459.5" y2="339"/>
	</g>
</g>
<line fill="none" stroke="#F0801A" stroke-width="6" stroke-linecap="round" stroke-miterlimit="10" x1="100" y1="260" x2="220" y2="60"/>
<text transform="matrix(1 0 0 1 30 370)" fill="#294270" font-family="'Roboto-Bold'" font-size="21">Wall: (2, 2), (5, 7)</text>
<text transform="matrix(1 0 0 1 295 370)" fill="#294270" font-family="'Roboto-Bold'" font-size="21">Shot point: (11, 2)</text>
<line fill="none" stroke="#65A1CF" stroke-miterlimit="10" x1="160" y1="160" x2="460" y2="260"/>
<circle fill="#294270" cx="460" cy="260" r="5"/>
<line fill="none" stroke="#65A1CF" stroke-width="2" stroke-miterlimit="10" x1="460" y1="260" x2="160" y2="160"/>
<line fill="none" stroke="#294270" stroke-width="4" stroke-linecap="round" stroke-miterlimit="10" x1="340" y1="220" x2="460" y2="260"/>
<line fill="none" stroke="#65A1CF" stroke-width="2" stroke-miterlimit="10" x1="460" y1="260" x2="203.1" y2="88.1"/>
<line fill="none" stroke="#65A1CF" stroke-width="2" stroke-miterlimit="10" x1="460" y1="260" x2="100" y2="260"/>
<line fill="none" stroke="#294270" stroke-width="4" stroke-linecap="round" stroke-miterlimit="10" x1="300" y1="260" x2="460" y2="260"/>
<g>
	<path fill="none" d="M506,272.5"/>
</g>
<g>
	<path fill="none" d="M46,272.5"/>
</g>
<line fill="none" stroke="#294270" stroke-width="4" stroke-linecap="round" stroke-miterlimit="10" x1="340" y1="180" x2="460" y2="260"/>
<path fill="none" stroke="#65A1CF" stroke-miterlimit="10" d="M426,323"/>
<path fill="none" stroke="#65A1CF" stroke-miterlimit="10" d="M126,223"/>
<text transform="matrix(1 0 0 1 220 407.6667)"><tspan x="0" y="0" fill="#294270" font-family="'Roboto-Bold'" font-size="21">1 case - (8, 3) = 100 points</tspan><tspan x="0" y="25.2" fill="#294270" font-family="'Roboto-Bold'" font-size="21">2 case - (7, 2) = 0 points</tspan><tspan x="0" y="50.4" fill="#294270" font-family="'Roboto-Bold'" font-size="21">3 case - (8, 4) = 33 points</tspan><tspan x="0" y="75.6" fill="#294270" font-family="'Roboto-Bold'" font-size="21">4 case - (9, 5) = -1 points</tspan></text>
<line fill="none" stroke="#65A1CF" stroke-width="2" stroke-miterlimit="10" x1="460" y1="260" x2="318.3" y2="47"/>
<line fill="none" stroke="#294270" stroke-width="4" stroke-linecap="round" stroke-miterlimit="10" x1="380" y1="139.5" x2="460" y2="260"/>
<text transform="matrix(1 0 0 1 29.9998 445)" fill="#294270" font-family="'Roboto-Bold'" font-size="21">Second point</text>
<text transform="matrix(1 0 0 1 340.5003 216.1667)" fill="#294270" font-family="'Roboto-Bold'" font-size="21">1</text>
<text transform="matrix(1 0 0 1 300.5 255)" fill="#294270" font-family="'Roboto-Bold'" font-size="21">2</text>
<text transform="matrix(1 0 0 1 380.5 136.3337)" fill="#294270" font-family="'Roboto-Bold'" font-size="21">4</text>
<text transform="matrix(1 0 0 1 343.0003 174.0625)" fill="#294270" font-family="'Roboto-Bold'" font-size="21">3</text>
</svg>
